<mxfile host="Electron" agent="Mozilla/5.0 (Windows NT 10.0; Win64; x64) AppleWebKit/537.36 (KHTML, like Gecko) draw.io/26.0.4 Chrome/128.0.6613.186 Electron/32.2.5 Safari/537.36" version="26.0.4">
  <diagram name="Page-1" id="CyUwAWjl9MxTuB-_2mRs">
    <mxGraphModel dx="185" dy="193" grid="1" gridSize="10" guides="1" tooltips="1" connect="1" arrows="1" fold="1" page="1" pageScale="1" pageWidth="850" pageHeight="1100" math="0" shadow="0">
      <root>
        <mxCell id="0" />
        <mxCell id="1" parent="0" />
        <mxCell id="YgR4zGx--7CXg_2M7SU2-23" value="" style="rounded=0;whiteSpace=wrap;html=1;fontSize=10;align=center;" parent="1" vertex="1">
          <mxGeometry x="110" y="50" width="520" height="30" as="geometry" />
        </mxCell>
        <mxCell id="YgR4zGx--7CXg_2M7SU2-24" value="ID" style="text;strokeColor=default;fillColor=none;spacingLeft=4;spacingRight=4;overflow=hidden;rotatable=0;points=[[0,0.5],[1,0.5]];portConstraint=eastwest;fontSize=10;whiteSpace=wrap;html=1;align=center;" parent="1" vertex="1">
          <mxGeometry x="110" y="50" width="30" height="30" as="geometry" />
        </mxCell>
        <mxCell id="YgR4zGx--7CXg_2M7SU2-25" value="Frist Name" style="text;strokeColor=default;fillColor=none;spacingLeft=4;spacingRight=4;overflow=hidden;rotatable=0;points=[[0,0.5],[1,0.5]];portConstraint=eastwest;fontSize=10;whiteSpace=wrap;html=1;align=center;" parent="1" vertex="1">
          <mxGeometry x="140" y="50" width="60" height="30" as="geometry" />
        </mxCell>
        <mxCell id="YgR4zGx--7CXg_2M7SU2-26" value="Last Name" style="text;strokeColor=default;fillColor=none;spacingLeft=4;spacingRight=4;overflow=hidden;rotatable=0;points=[[0,0.5],[1,0.5]];portConstraint=eastwest;fontSize=10;whiteSpace=wrap;html=1;align=center;" parent="1" vertex="1">
          <mxGeometry x="200" y="50" width="60" height="30" as="geometry" />
        </mxCell>
        <mxCell id="YgR4zGx--7CXg_2M7SU2-27" value="GID" style="text;strokeColor=default;fillColor=none;spacingLeft=4;spacingRight=4;overflow=hidden;rotatable=0;points=[[0,0.5],[1,0.5]];portConstraint=eastwest;fontSize=10;whiteSpace=wrap;html=1;align=center;" parent="1" vertex="1">
          <mxGeometry x="260" y="50" width="30" height="30" as="geometry" />
        </mxCell>
        <mxCell id="YgR4zGx--7CXg_2M7SU2-28" value="City" style="text;strokeColor=default;fillColor=none;spacingLeft=4;spacingRight=4;overflow=hidden;rotatable=0;points=[[0,0.5],[1,0.5]];portConstraint=eastwest;fontSize=10;whiteSpace=wrap;html=1;align=center;" parent="1" vertex="1">
          <mxGeometry x="290" y="50" width="30" height="30" as="geometry" />
        </mxCell>
        <mxCell id="YgR4zGx--7CXg_2M7SU2-29" value="Street" style="text;strokeColor=default;fillColor=none;spacingLeft=4;spacingRight=4;overflow=hidden;rotatable=0;points=[[0,0.5],[1,0.5]];portConstraint=eastwest;fontSize=10;whiteSpace=wrap;html=1;align=center;" parent="1" vertex="1">
          <mxGeometry x="320" y="50" width="40" height="30" as="geometry" />
        </mxCell>
        <mxCell id="YgR4zGx--7CXg_2M7SU2-30" value="Male Child" style="text;strokeColor=default;fillColor=none;spacingLeft=4;spacingRight=4;overflow=hidden;rotatable=0;points=[[0,0.5],[1,0.5]];portConstraint=eastwest;fontSize=10;whiteSpace=wrap;html=1;align=center;" parent="1" vertex="1">
          <mxGeometry x="360" y="50" width="60" height="30" as="geometry" />
        </mxCell>
        <mxCell id="YgR4zGx--7CXg_2M7SU2-31" value="Female Child" style="text;strokeColor=default;fillColor=none;spacingLeft=4;spacingRight=4;overflow=hidden;rotatable=0;points=[[0,0.5],[1,0.5]];portConstraint=eastwest;fontSize=10;whiteSpace=wrap;html=1;align=center;" parent="1" vertex="1">
          <mxGeometry x="420" y="50" width="70" height="30" as="geometry" />
        </mxCell>
        <mxCell id="YgR4zGx--7CXg_2M7SU2-33" value="Notes" style="text;strokeColor=default;fillColor=none;spacingLeft=4;spacingRight=4;overflow=hidden;rotatable=0;points=[[0,0.5],[1,0.5]];portConstraint=eastwest;fontSize=10;whiteSpace=wrap;html=1;align=center;" parent="1" vertex="1">
          <mxGeometry x="530" y="50" width="40" height="30" as="geometry" />
        </mxCell>
        <mxCell id="YgR4zGx--7CXg_2M7SU2-34" value="Join Date" style="text;strokeColor=default;fillColor=none;spacingLeft=4;spacingRight=4;overflow=hidden;rotatable=0;points=[[0,0.5],[1,0.5]];portConstraint=eastwest;fontSize=10;whiteSpace=wrap;html=1;align=center;" parent="1" vertex="1">
          <mxGeometry x="570" y="50" width="60" height="30" as="geometry" />
        </mxCell>
        <mxCell id="YgR4zGx--7CXg_2M7SU2-35" value="People Table" style="text;strokeColor=none;fillColor=none;spacingLeft=4;spacingRight=4;overflow=hidden;rotatable=0;points=[[0,0.5],[1,0.5]];portConstraint=eastwest;fontSize=12;whiteSpace=wrap;html=1;align=center;" parent="1" vertex="1">
          <mxGeometry x="378" y="20" width="95" height="30" as="geometry" />
        </mxCell>
        <mxCell id="YgR4zGx--7CXg_2M7SU2-52" value="" style="rounded=0;whiteSpace=wrap;html=1;fontSize=10;align=center;" parent="1" vertex="1">
          <mxGeometry x="265" y="150" width="265" height="30" as="geometry" />
        </mxCell>
        <mxCell id="YgR4zGx--7CXg_2M7SU2-53" value="ID" style="text;strokeColor=default;fillColor=none;spacingLeft=4;spacingRight=4;overflow=hidden;rotatable=0;points=[[0,0.5],[1,0.5]];portConstraint=eastwest;fontSize=10;whiteSpace=wrap;html=1;align=center;" parent="1" vertex="1">
          <mxGeometry x="265" y="150" width="25" height="30" as="geometry" />
        </mxCell>
        <mxCell id="YgR4zGx--7CXg_2M7SU2-54" value="People ID" style="text;strokeColor=default;fillColor=none;spacingLeft=4;spacingRight=4;overflow=hidden;rotatable=0;points=[[0,0.5],[1,0.5]];portConstraint=eastwest;fontSize=10;whiteSpace=wrap;html=1;align=center;" parent="1" vertex="1">
          <mxGeometry x="290" y="150" width="60" height="30" as="geometry" />
        </mxCell>
        <mxCell id="YgR4zGx--7CXg_2M7SU2-55" value="Helping ID" style="text;strokeColor=default;fillColor=none;spacingLeft=4;spacingRight=4;overflow=hidden;rotatable=0;points=[[0,0.5],[1,0.5]];portConstraint=eastwest;fontSize=10;whiteSpace=wrap;html=1;align=center;" parent="1" vertex="1">
          <mxGeometry x="350" y="150" width="60" height="30" as="geometry" />
        </mxCell>
        <mxCell id="YgR4zGx--7CXg_2M7SU2-56" value="Value" style="text;strokeColor=default;fillColor=none;spacingLeft=4;spacingRight=4;overflow=hidden;rotatable=0;points=[[0,0.5],[1,0.5]];portConstraint=eastwest;fontSize=10;whiteSpace=wrap;html=1;align=center;" parent="1" vertex="1">
          <mxGeometry x="410" y="150" width="40" height="30" as="geometry" />
        </mxCell>
        <mxCell id="YgR4zGx--7CXg_2M7SU2-62" value="Notes" style="text;strokeColor=default;fillColor=none;spacingLeft=4;spacingRight=4;overflow=hidden;rotatable=0;points=[[0,0.5],[1,0.5]];portConstraint=eastwest;fontSize=10;whiteSpace=wrap;html=1;align=center;" parent="1" vertex="1">
          <mxGeometry x="450" y="150" width="40" height="30" as="geometry" />
        </mxCell>
        <mxCell id="YgR4zGx--7CXg_2M7SU2-63" value="Date" style="text;strokeColor=default;fillColor=none;spacingLeft=4;spacingRight=4;overflow=hidden;rotatable=0;points=[[0,0.5],[1,0.5]];portConstraint=eastwest;fontSize=10;whiteSpace=wrap;html=1;align=center;" parent="1" vertex="1">
          <mxGeometry x="490" y="150" width="40" height="30" as="geometry" />
        </mxCell>
        <mxCell id="YgR4zGx--7CXg_2M7SU2-64" value="&lt;code&gt;Assistance Table&lt;/code&gt;" style="text;spacingLeft=4;spacingRight=4;overflow=hidden;rotatable=0;points=[[0,0.5],[1,0.5]];portConstraint=eastwest;fontSize=12;whiteSpace=wrap;html=1;fontFamily=Helvetica;align=center;" parent="1" vertex="1">
          <mxGeometry x="365" y="110" width="130" height="30" as="geometry" />
        </mxCell>
        <mxCell id="YgR4zGx--7CXg_2M7SU2-66" value="" style="endArrow=classic;html=1;rounded=0;fillColor=#a20025;strokeColor=#6F0000;align=center;" parent="1" source="YgR4zGx--7CXg_2M7SU2-24" target="YgR4zGx--7CXg_2M7SU2-54" edge="1">
          <mxGeometry width="50" height="50" relative="1" as="geometry">
            <mxPoint x="120" y="170" as="sourcePoint" />
            <mxPoint x="170" y="120" as="targetPoint" />
            <Array as="points">
              <mxPoint x="125" y="120" />
              <mxPoint x="320" y="120" />
            </Array>
          </mxGeometry>
        </mxCell>
        <mxCell id="YgR4zGx--7CXg_2M7SU2-67" value="" style="rounded=0;whiteSpace=wrap;html=1;fontSize=10;align=center;" parent="1" vertex="1">
          <mxGeometry x="415" y="225" width="105" height="30" as="geometry" />
        </mxCell>
        <mxCell id="YgR4zGx--7CXg_2M7SU2-68" value="ID" style="text;strokeColor=default;fillColor=none;spacingLeft=4;spacingRight=4;overflow=hidden;rotatable=0;points=[[0,0.5],[1,0.5]];portConstraint=eastwest;fontSize=10;whiteSpace=wrap;html=1;align=center;" parent="1" vertex="1">
          <mxGeometry x="415" y="225" width="25" height="30" as="geometry" />
        </mxCell>
        <mxCell id="YgR4zGx--7CXg_2M7SU2-69" value="Helping name" style="text;strokeColor=default;fillColor=none;spacingLeft=4;spacingRight=4;overflow=hidden;rotatable=0;points=[[0,0.5],[1,0.5]];portConstraint=eastwest;fontSize=10;whiteSpace=wrap;html=1;align=center;" parent="1" vertex="1">
          <mxGeometry x="440" y="225" width="80" height="30" as="geometry" />
        </mxCell>
        <mxCell id="YgR4zGx--7CXg_2M7SU2-70" value="&lt;span style=&quot;&quot;&gt;Type of helping&lt;/span&gt;&amp;nbsp;Table" style="text;strokeColor=none;fillColor=none;spacingLeft=4;spacingRight=4;overflow=hidden;rotatable=0;points=[[0,0.5],[1,0.5]];portConstraint=eastwest;fontSize=12;whiteSpace=wrap;html=1;align=center;" parent="1" vertex="1">
          <mxGeometry x="402.5" y="190" width="130" height="30" as="geometry" />
        </mxCell>
        <mxCell id="YgR4zGx--7CXg_2M7SU2-72" value="" style="endArrow=classic;html=1;rounded=0;fillColor=#a20025;strokeColor=#6F0000;align=center;" parent="1" source="YgR4zGx--7CXg_2M7SU2-68" target="YgR4zGx--7CXg_2M7SU2-55" edge="1">
          <mxGeometry width="50" height="50" relative="1" as="geometry">
            <mxPoint x="260" y="280" as="sourcePoint" />
            <mxPoint x="310" y="230" as="targetPoint" />
            <Array as="points">
              <mxPoint x="380" y="240" />
            </Array>
          </mxGeometry>
        </mxCell>
        <mxCell id="Et5ttAlKqbfQOcHJAo25-1" value="Status" style="text;strokeColor=default;fillColor=none;spacingLeft=4;spacingRight=4;overflow=hidden;rotatable=0;points=[[0,0.5],[1,0.5]];portConstraint=eastwest;fontSize=10;whiteSpace=wrap;html=1;align=center;" vertex="1" parent="1">
          <mxGeometry x="490" y="50" width="40" height="30" as="geometry" />
        </mxCell>
      </root>
    </mxGraphModel>
  </diagram>
</mxfile>
